<?xml version="1.0" encoding="iso-8859-1"?>
<!-- Generator: Adobe Illustrator 19.0.0, SVG Export Plug-In . SVG Version: 6.00 Build 0)  -->
<svg version="1.1" id="Capa_1" xmlns="http://www.w3.org/2000/svg" xmlns:xlink="http://www.w3.org/1999/xlink" x="0px" y="0px"
	 viewBox="0 0 512 512" style="enable-background:new 0 0 512 512;" xml:space="preserve">
<path style="fill:#FFF082;" d="M97.887,191.85c5.639-11.05,10.034-22.722,13.024-34.872c1.928-5.623,3.383-16.137,4.218-22.91
	c0.385-3.121,3.817-4.839,6.537-3.278c19.458,11.163,34.489,28.038,42.202,48.005l0,0C163.869,84.191,240.271,7.5,334.518,7.5l0,0
	c2.423,0,4.386,1.971,4.386,4.403v97.521c0,18.764,15.154,33.975,33.847,33.975l0,0c6.421,0,12.422-1.798,17.535-4.918
	c2.656-1.62,6.118,0.03,6.564,3.118c0.763,5.278,2.014,10.418,3.715,15.379c2.99,12.15,7.385,23.822,13.024,34.872
	c20.303,39.784,31.869,82.663,34.807,126.276c0.501,7.434-0.868,41.197-3.855,49.905C425.329,446.109,348.101,504.5,255.739,504.5
	S86.148,446.109,66.934,368.03c-2.986-8.708-4.09-48.968-3.057-59.612C67.785,268.158,79.092,228.678,97.887,191.85z"/>
<g>
	<path style="fill:#FFDC64;" d="M338.905,11.903v20.719c-85.252,5.489-153.474,73.803-159.177,159.312
		c-0.256,3.838-3.777,3.732-5.892,0.001c-2.847-5.022-6.186-9.78-9.953-14.227C164.466,83.606,240.633,7.5,334.518,7.5l0,0
		C336.941,7.5,338.905,9.471,338.905,11.903z M101.748,364.259c-2.986-9.32-4.09-52.411-3.057-63.804
		c3.907-43.091,15.215-85.347,34.009-124.764c4.312-9.044,7.89-18.48,10.676-28.234c-6.342-6.41-13.637-12.037-21.71-16.668
		c-2.72-1.561-6.152,0.157-6.537,3.278c-0.836,6.773-2.29,17.287-4.218,22.91c-2.99,12.15-7.385,23.822-13.024,34.872
		c-18.794,36.828-30.102,76.308-34.009,116.568c-1.033,10.644,0.07,50.905,3.057,59.612
		c18.127,73.663,87.894,129.791,173.287,135.907C171.136,486.011,117.34,432.074,101.748,364.259z"/>
	<path style="fill:#FFDC64;" d="M159.532,464.499L159.532,464.499c-53.134-53.334-53.134-139.806,0-193.14l96.207-96.57
		l96.207,96.57c53.133,53.334,53.133,139.806,0,193.14l0,0C298.812,517.833,212.666,517.833,159.532,464.499z"/>
</g>
<path style="fill:#FFC850;" d="M251.212,504.406c-33.207-1.166-66.07-14.462-91.419-39.907l0,0
	c-53.133-53.334-53.133-139.806,0-193.14l86.247-86.572l-55.981,69.94c-46.21,57.732-46.21,151.335,0,209.067l0,0
	C207.408,485.471,228.806,499.007,251.212,504.406z"/>
<path style="fill:#FF4040;" d="M328.55,386.172L328.55,386.172c-15.012,21.678-34.161,40.151-56.338,54.347l-12.395,7.934
	c-2.488,1.592-5.669,1.592-8.157,0l-12.395-7.934c-22.176-14.196-41.325-32.668-56.338-54.347l0,0
	c-11.622-17.499-9.324-40.8,5.492-55.672l0,0c16.437-16.499,43.088-16.499,59.525,0l2.431,2.44c2.962,2.973,7.765,2.973,10.727,0
	l2.431-2.44c16.437-16.499,43.088-16.499,59.525,0l0,0C337.873,345.371,340.172,368.672,328.55,386.172z"/>
<path style="fill:#ED3C3C;" d="M257.223,449.481c-1.887,0.378-3.882,0.047-5.563-1.029l-12.395-7.935
	c-22.176-14.196-41.325-32.668-56.338-54.347l0,0c-11.622-17.499-9.324-40.8,5.492-55.672l0,0
	c12.766-12.814,31.691-15.67,47.209-8.58c-6.098,2.499-11.813,6.23-16.763,11.198l0,0c-17.95,18.018-20.735,46.249-6.654,67.451l0,0
	C224.92,418.919,240.081,435.365,257.223,449.481z"/>
<path d="M451.779,370.108c-9.85,39.716-34.615,75.747-69.761,101.487c-35.576,26.055-80.424,40.404-126.28,40.404
	c-0.003,0-0.007,0-0.01,0c-0.031,0-0.062,0.001-0.093,0.001c-0.279,0-0.556-0.009-0.835-0.01
	c-45.53-0.194-90.009-14.518-125.342-40.395c-35.15-25.743-59.917-61.779-69.764-101.501c-3.461-10.977-4.295-52.223-3.307-62.401
	c4.062-41.849,15.77-81.971,34.798-119.253c5.432-10.645,9.612-21.833,12.423-33.255c0.053-0.217,0.116-0.431,0.188-0.642
	c0.876-2.555,2.259-8.34,3.87-21.395c0.489-3.967,2.914-7.401,6.487-9.187c3.569-1.783,7.766-1.664,11.227,0.321
	c21.09,12.098,37.239,30.497,45.473,51.808c1.493,3.864-0.43,8.207-4.294,9.699c-3.864,1.49-8.208-0.431-9.7-4.293
	c-6.471-16.748-18.782-31.431-34.921-41.764c-1.217,8.882-2.48,15.242-3.839,19.344c-3.086,12.435-7.645,24.605-13.552,36.182
	c-18.17,35.6-29.35,73.915-33.229,113.884c-0.991,10.212,0.267,49.4,2.686,56.455c0.072,0.21,0.135,0.424,0.188,0.641
	c10.652,43.28,40.137,79.774,79.59,103.119c-27.466-27.791-42.239-64.627-41.601-103.797c0.067-4.1,3.412-7.378,7.498-7.378
	c0.042,0,0.083,0,0.125,0.001c4.142,0.067,7.445,3.479,7.378,7.621c-0.575,35.285,12.796,68.456,37.651,93.401
	c23.946,24.033,55.426,37.356,89.095,37.776c0.583,0.005,1.164,0.017,1.748,0.018c1.015-0.001,2.031-0.01,3.049-0.035
	c0.059-0.001,0.118-0.002,0.177-0.002c0.032,0,0.064,0.004,0.096,0.005c85.197-1.361,159.871-55.914,178.284-130.729
	c0.053-0.217,0.116-0.431,0.188-0.641c2.464-7.185,3.945-39.857,3.466-46.968c-2.923-43.374-14.365-84.882-34.009-123.371
	c-5.906-11.571-10.464-23.737-13.549-36.168c-1.333-3.934-2.404-7.971-3.196-12.05c-5.432,2.533-11.374,3.857-17.418,3.857
	c-22.802,0-41.352-18.605-41.352-41.475V15.03c-75.864,1.457-140.34,50.386-155.581,125.136c-0.827,4.059-4.788,6.682-8.848,5.851
	c-4.059-0.827-6.679-4.788-5.851-8.847c8.105-39.756,28.682-70.353,60.046-96.331C252.975,14.504,293.23,0,334.527,0
	c6.555,0,11.888,5.34,11.888,11.903v97.52c0,14.599,11.821,26.475,26.35,26.475c4.819,0,9.532-1.321,13.631-3.82
	c3.399-2.073,7.583-2.296,11.195-0.599c3.623,1.705,6.128,5.087,6.701,9.046c0.687,4.751,1.826,9.468,3.387,14.02
	c0.072,0.21,0.135,0.424,0.189,0.641c2.811,11.423,6.991,22.611,12.423,33.255c20.572,40.308,32.554,83.77,35.614,129.181
	C456.347,324.179,455.277,359.207,451.779,370.108z M364.081,450.923c1.291,0.876,2.756,1.296,4.206,1.296
	c2.402,0,4.762-1.151,6.213-3.289c38.738-57.059,31.491-133.965-17.23-182.864l-96.219-96.57c-1.408-1.413-3.32-2.207-5.314-2.207
	c-1.994,0-3.906,0.794-5.314,2.207l-96.219,96.57c-19.557,19.628-32.97,44.28-38.789,71.292c-0.872,4.049,1.704,8.039,5.754,8.911
	c4.049,0.867,8.04-1.704,8.912-5.753c5.212-24.193,17.229-46.277,34.751-63.864l90.905-91.236l90.904,91.236
	c43.659,43.818,50.155,112.728,15.446,163.854C359.761,443.933,360.654,448.597,364.081,450.923z M293.298,310.624
	c13.253,0,25.712,5.179,35.081,14.582c17.271,17.333,19.974,44.718,6.427,65.114c-0.027,0.04-0.054,0.08-0.082,0.12
	c-15.661,22.611-35.332,41.585-58.468,56.393l-12.397,7.935c-2.467,1.579-5.295,2.368-8.123,2.368c-2.827,0-5.654-0.789-8.121-2.367
	l-12.398-7.936c-23.137-14.809-42.808-33.782-58.468-56.393c-0.027-0.04-0.055-0.08-0.082-0.12
	c-13.548-20.395-10.845-47.78,6.427-65.114c9.368-9.403,21.827-14.582,35.08-14.582l0,0c13.253,0,25.711,5.179,35.08,14.582
	l2.43,2.438c-0.002-0.004,0.078,0,0.097,0c0.002,0,0.004,0,0.004,0l2.431-2.439C267.587,315.803,280.046,310.624,293.298,310.624z
	 M317.751,335.792c-6.533-6.557-15.217-10.168-24.452-10.168s-17.919,3.611-24.452,10.168l-2.431,2.44
	c-2.85,2.86-6.642,4.437-10.678,4.437s-7.828-1.576-10.679-4.438l-2.43-2.438c-6.534-6.558-15.217-10.169-24.453-10.169
	c-9.235,0-17.919,3.611-24.452,10.168c-12.244,12.289-14.173,31.694-4.598,46.17c14.517,20.943,32.745,38.519,54.18,52.239
	l12.396,7.935l12.466-7.935c21.434-13.72,39.662-31.295,54.179-52.238C331.923,367.487,329.995,348.08,317.751,335.792
	L317.751,335.792z"/>
<g>
</g>
<g>
</g>
<g>
</g>
<g>
</g>
<g>
</g>
<g>
</g>
<g>
</g>
<g>
</g>
<g>
</g>
<g>
</g>
<g>
</g>
<g>
</g>
<g>
</g>
<g>
</g>
<g>
</g>
</svg>
