<?xml version="1.0" encoding="iso-8859-1"?>
<!-- Generator: Adobe Illustrator 19.0.0, SVG Export Plug-In . SVG Version: 6.00 Build 0)  -->
<svg version="1.1" id="Capa_1" xmlns="http://www.w3.org/2000/svg" xmlns:xlink="http://www.w3.org/1999/xlink" x="0px" y="0px"
	 viewBox="0 0 480.001 480.001" style="enable-background:new 0 0 480.001 480.001;" xml:space="preserve">
<path style="fill:#E47700;" d="M167.701,151.937h32c88.4,0,160,71.6,160,160v40c0,30.9,25.1,56,56,56s56-25.1,56-56v-40
	c0-88.4-71.6-160-160-160H167.701z"/>
<path style="fill:#33BC00;" d="M279.701,231.937l-16-32h-12c-11,0-20-9-20-20s9-20,20-20c2.7,0,5-2.2,5-5c0-1.3-0.5-2.6-1.5-3.5
	l-3.5-3.5c-6.6-6.6-6.6-17.4,0-24l0,0c6.6-6.6,17.4-6.6,24,0l0,0l3.5,3.5c1.9,1.9,5.1,2,7,0c0.9-0.9,1.5-2.2,1.5-3.5
	c0-11,9-20,20-20s20,9,20,20c0,2.7,2.2,5,5,5c1.3,0,2.6-0.5,3.5-1.5l3.5-3.5c6.6-6.6,17.4-6.6,24,0l0,0c6.6,6.6,6.6,17.4,0,24l0,0
	l-3.5,3.5c-1.9,1.9-2,5.1,0,7c0.9,0.9,2.2,1.5,3.5,1.5c11,0,20,9,20,20s-9,20-20,20h-12l-16,32H279.701z"/>
<path style="fill:#008100;" d="M335.701,327.938l-16-32h-12c-11,0-20-9-20-20s9-20,20-20c2.7,0,5-2.2,5-5c0-1.3-0.5-2.6-1.5-3.5
	l-3.5-3.5c-6.6-6.6-6.6-17.4,0-24l0,0c6.6-6.6,17.4-6.6,24,0l0,0l3.5,3.5c1.9,1.9,5.1,2,7,0c0.9-0.9,1.5-2.2,1.5-3.5
	c0-11,9-20,20-20s20,9,20,20c0,2.7,2.2,5,5,5c1.3,0,2.6-0.5,3.5-1.5l3.5-3.5c6.6-6.6,17.4-6.6,24,0l0,0c6.6,6.6,6.6,17.4,0,24l0,0
	l-3.5,3.5c-1.9,1.9-2,5.1,0,7c0.9,0.9,2.2,1.5,3.5,1.5c11,0,20,9,20,20s-9,20-20,20h-12l-16,32H335.701z"/>
<path style="fill:#33BC00;" d="M343.701,407.938l-16-32h-12c-11,0-20-9-20-20s9-20,20-20c2.7,0,5-2.2,5-5c0-1.3-0.5-2.6-1.5-3.5
	l-3.5-3.5c-6.6-6.6-6.6-17.4,0-24l0,0c6.6-6.6,17.4-6.6,24,0l0,0l3.5,3.5c1.9,1.9,5.1,2,7,0c0.9-0.9,1.5-2.2,1.5-3.5
	c0-11,9-20,20-20s20,9,20,20c0,2.7,2.2,5,5,5c1.3,0,2.6-0.5,3.5-1.5l3.5-3.5c6.6-6.6,17.4-6.6,24,0l0,0c6.6,6.6,6.6,17.4,0,24l0,0
	l-3.5,3.5c-1.9,1.9-2,5.1,0,7c0.9,0.9,2.2,1.5,3.5,1.5c11,0,20,9,20,20s-9,20-20,20h-12l-16,32H343.701z"/>
<g>
	<path id="SVGCleanerId_0" style="fill:#FDB62F;" d="M7.701,351.938v-40c0-88.4,71.6-160,160-160h32c88.4,0,160,71.6,160,160v40
		c0,30.9,25.1,56,56,56h-352C32.801,407.938,7.701,382.837,7.701,351.938z"/>
</g>
<g>
	<path id="SVGCleanerId_0_1_" style="fill:#FDB62F;" d="M7.701,351.938v-40c0-88.4,71.6-160,160-160h32c88.4,0,160,71.6,160,160v40
		c0,30.9,25.1,56,56,56h-352C32.801,407.938,7.701,382.837,7.701,351.938z"/>
</g>
<path style="fill:#008100;" d="M159.701,199.937l-16-32h-12c-11,0-20-9-20-20s9-20,20-20c2.7,0,5-2.2,5-5c0-1.3-0.5-2.6-1.5-3.5
	l-3.5-3.5c-6.6-6.6-6.6-17.4,0-24l0,0c6.6-6.6,17.4-6.6,24,0l0,0l3.5,3.5c1.9,1.9,5.1,2,7,0c0.9-0.9,1.5-2.2,1.5-3.5
	c0-11,9-20,20-20s20,9,20,20c0,2.7,2.2,5,5,5c1.3,0,2.6-0.5,3.5-1.5l3.5-3.5c6.6-6.6,17.4-6.6,24,0l0,0c6.6,6.6,6.6,17.4,0,24l0,0
	l-3.5,3.5c-1.9,1.9-2,5.1,0,7c0.9,0.9,2.2,1.5,3.5,1.5c11,0,20,9,20,20s-9,20-20,20h-12l-16,32H159.701z"/>
<path style="fill:#33BC00;" d="M55.701,239.937l-16-32h-12c-11,0-20-9-20-20s9-20,20-20c2.7,0,5-2.2,5-5c0-1.3-0.5-2.6-1.5-3.5
	l-3.5-3.5c-6.6-6.6-6.6-17.4,0-24l0,0c6.6-6.6,17.4-6.6,24,0l0,0l3.5,3.5c1.9,1.9,5.1,2,7,0c0.9-0.9,1.5-2.2,1.5-3.5
	c0-11,9-20,20-20s20,9,20,20c0,2.7,2.2,5,5,5c1.3,0,2.6-0.5,3.5-1.5l3.5-3.5c6.6-6.6,17.4-6.6,24,0l0,0c6.6,6.6,6.6,17.4,0,24l0,0
	l-3.5,3.5c-1.9,1.9-2,5.1,0,7c0.9,0.9,2.2,1.5,3.5,1.5c11,0,20,9,20,20s-9,20-20,20h-12l-16,32H55.701z"/>
<g>
	<path id="SVGCleanerId_0_2_" style="fill:#FDB62F;" d="M7.701,351.938v-40c0-88.4,71.6-160,160-160h32c88.4,0,160,71.6,160,160v40
		c0,30.9,25.1,56,56,56h-352C32.801,407.938,7.701,382.837,7.701,351.938z"/>
</g>
<path d="M383.301,160.137c-3.6-3.6-8.1-6.2-13.1-7.4c8.9-9.9,8.6-25-0.8-34.4c-9.5-9.1-24.4-9.5-34.4-0.8
	c-3.6-15-18.7-24.3-33.7-20.7c-10.3,2.4-18.3,10.5-20.7,20.7c-7-6.1-16.7-7.8-25.4-4.7c3.5-9.2,1.2-19.5-5.7-26.5
	c-9.5-9.1-24.4-9.5-34.4-0.8c-3.6-15-18.7-24.3-33.7-20.7c-10.3,2.4-18.3,10.5-20.7,20.7c-10-8.6-24.9-8.2-34.4,0.8
	c-8.9,9-9.7,23.3-1.8,33.1c-5,0.6-9.6,2.7-13.3,6c-3.6-15-18.7-24.3-33.7-20.7c-10.3,2.4-18.3,10.5-20.7,20.7
	c-10-8.6-24.9-8.2-34.4,0.8c-9.4,9.4-9.8,24.5-0.8,34.4c-15,3.6-24.3,18.7-20.7,33.8c3,12.5,14.2,21.4,27.1,21.5h2.4
	c-19.8,28.1-30.5,61.6-30.4,96v40c0,35.3,28.7,64,64,64h352c35.3,0,64-28.7,64-64v-40
	C479.501,246.937,442.001,187.937,383.301,160.137L383.301,160.137z M383.701,231.937c4.8,2,10.4,0.9,14.1-2.8l3.5-3.5
	c3.5-3.4,9.1-3.4,12.7,0c3.5,3.5,3.5,9.2,0,12.7l-3.5,3.5c-5.1,5.1-5,13.3,0.1,18.4c2.4,2.4,5.7,3.8,9.1,3.8c6.6,0,12,5.4,12,12
	c0,1.4-0.3,2.7-0.7,4c0,0.1,0,0.2-0.1,0.3c-0.5,1.2-1.1,2.2-1.9,3.2c-0.1,0.1-0.2,0.2-0.3,0.4c-0.8,0.9-1.8,1.7-2.8,2.3
	c-0.2,0.1-0.3,0.2-0.5,0.3c-1.1,0.6-2.3,1-3.5,1.2l-0.5,0.1c-0.2,0-0.3,0-0.5,0c-1.8-0.4-3.7-0.6-5.5-0.6h-0.3
	c-1.8,0.1-3.6,0.3-5.3,0.8c-0.2,0.1-0.5,0-0.7,0.1h-1.4c-0.7,0-1.5,0.1-2.2,0.3c-0.2,0.1-0.5,0.2-0.7,0.3c-0.4,0.1-0.8,0.3-1.2,0.6
	c-0.6,0.4-1.1,0.9-1.7,1.3c-0.2,0.3-0.4,0.5-0.6,0.8s-0.4,0.5-0.6,0.8c-0.6,0.5-1.2,1-1.8,1.5c-3.4-14.6-17.6-23.8-32.3-21
	c-0.5,0.1-1,0.2-1.5,0.4c-0.7,0.2-1.4,0.3-2,0.5c-0.2-0.9-0.5-1.7-0.7-2.5c-0.3-1.3-0.7-2.6-1.1-3.9c-1-3.5-2-6.9-3.2-10.3
	c-0.4-1.2-0.8-2.4-1.2-3.6c-1.6-4.4-3.4-8.7-5.4-12.9c-0.4-0.8-0.8-1.5-1.2-2.2c-1.2-2.5-2.5-5-3.8-7.4l0.1-0.1
	c0.7-0.5,1.4-1.2,2-1.9c0.1-0.2,0.2-0.3,0.4-0.5c0.4-0.6,0.8-1.1,1.2-1.8c0.1-0.3,0.3-0.5,0.4-0.8c0.3-0.6,0.5-1.2,0.7-1.8
	c0.1-0.3,0.2-0.5,0.2-0.8c0.2-0.9,0.3-1.9,0.3-2.8c0-1.1,0.2-2.2,0.6-3.3l0.6-1.3l1.3-2.7v-0.1c0.3-0.4,0.7-0.8,1-1.1
	s0.5-0.6,0.8-0.8c0.4-0.3,0.9-0.6,1.3-0.9c0.3-0.2,0.6-0.4,0.9-0.6c0.5-0.3,1.1-0.5,1.7-0.6c0.3-0.1,0.6-0.2,0.8-0.3
	c0.9-0.2,1.9-0.4,2.8-0.4c6.6,0,12,5.4,12,12C375.701,225.237,378.801,229.937,383.701,231.937L383.701,231.937z M270.001,129.637
	l3.5,3.5c5.1,5.1,13.3,5.1,18.4,0c2.4-2.4,3.8-5.7,3.8-9.2c0-6.6,5.4-12,12-12s12,5.4,12,12c0,7.2,5.8,13,13,13
	c3.4,0,6.7-1.4,9.2-3.8l3.5-3.5c3.5-3.4,9.1-3.4,12.7,0c3.5,3.5,3.5,9.2,0,12.7l-3.5,3.5c-5.1,5.1-5.1,13.3,0,18.4
	c2.4,2.4,5.7,3.8,9.2,3.8c6.6,0.1,11.9,5.4,12,12c0,6.6-5.4,12-12,12c-8.9,0-17.3,4.3-22.6,11.6c0,0.1-0.1,0.2-0.1,0.2
	c-0.8,1.1-1.4,2.2-2,3.4c-0.2,0.5-0.4,1-0.6,1.4c-0.3,0.7-0.7,1.5-1,2.2l-1.2,2.4c-0.6-0.5-1.2-1-1.8-1.4c-2.1-2.9-4.3-5.6-6.6-8.3
	l-0.3-0.4c-2.4-2.8-4.8-5.4-7.3-8c-0.9-0.9-1.8-1.8-2.8-2.7c-1.8-1.8-3.6-3.5-5.4-5.2c-1.1-1-2.3-2-3.4-2.9
	c-1.7-1.5-3.5-2.9-5.3-4.3c-1.2-1-2.5-1.9-3.8-2.8c-1.8-1.3-3.6-2.6-5.4-3.9c-1.3-0.9-2.6-1.8-3.9-2.6c-1.9-1.2-3.8-2.4-5.8-3.5
	c-1.3-0.8-2.6-1.6-4-2.3c-2.1-1.2-4.3-2.2-6.4-3.3c-1.2-0.6-2.4-1.2-3.7-1.8c-0.3-0.1-0.6-0.3-0.9-0.4c0.1-0.2,0.1-0.4,0.2-0.6
	c0.7-1.6,1.2-3.3,1.6-5.1c0.8-3.6,0.8-7.4,0-11c-0.1-0.5-0.3-1.1-0.4-1.6c-0.3-1.2-0.7-2.4-1.2-3.6c-0.2-0.6-0.5-1.1-0.7-1.6
	c-0.6-1.2-1.2-2.3-2-3.4c-0.3-0.4-0.5-0.8-0.8-1.2c-1.1-1.4-2.2-2.7-3.5-3.9l-0.1-0.1
	C265.101,126.737,268.001,127.637,270.001,129.637L270.001,129.637z M137.401,97.637c3.5-3.4,9.1-3.4,12.7,0l3.5,3.5
	c5.1,5.1,13.3,5.1,18.4,0c2.4-2.4,3.8-5.7,3.8-9.2c0-6.6,5.4-12,12-12s12,5.4,12,12c0,7.2,5.8,13,13,13c3.4,0,6.7-1.4,9.2-3.8
	l3.5-3.5c3.5-3.4,9.1-3.4,12.7,0c3.5,3.5,3.5,9.2,0,12.7l-3.5,3.5c-5.1,5.1-5.1,13.3,0,18.4c2.4,2.4,5.7,3.8,9.2,3.8
	c1,0,1.9,0.2,2.8,0.4c5.4,1.3,9.1,6.1,9.2,11.6c0,0.8-0.1,1.6-0.2,2.4c-0.2,1-0.6,1.9-1.1,2.8l-1.9-0.6c-17-5.7-34.9-8.6-52.8-8.6
	h-32c-4.7,0-9.5,0.3-14.4,0.7c-0.2,0-0.4,0-0.7,0c0-0.4-0.1-0.7-0.1-1c0-0.9-0.1-1.8-0.2-2.8c-0.1-0.7-0.2-1.3-0.3-2
	c-0.2-0.9-0.5-1.9-0.8-2.8c-0.2-0.6-0.4-1.2-0.6-1.8c-0.4-1-0.9-1.9-1.5-2.9c-0.3-0.5-0.5-1-0.8-1.4c-0.9-1.4-1.9-2.7-3.1-3.8
	c-0.3-0.3-0.6-0.6-0.9-0.9c0.8-4.2-0.5-8.6-3.6-11.6l-3.5-3.5C133.901,106.737,133.901,101.137,137.401,97.637L137.401,97.637z
	 M27.701,199.937c-6.6,0-12-5.4-12-12s5.4-12,12-12c7.2,0,13-5.8,13-13c0-3.4-1.4-6.7-3.8-9.2l-3.5-3.5c-3.5-3.5-3.5-9.2,0-12.7
	c3.5-3.4,9.1-3.4,12.7,0l3.5,3.5c5.1,5.1,13.3,5.1,18.4,0c2.4-2.4,3.8-5.7,3.8-9.2c0-6.6,5.4-12,12-12s12,5.4,12,12
	c0,7.2,5.8,13,13,13c3.4,0,6.7-1.4,9.2-3.8l3.5-3.5c2.4-2.3,5.8-3.2,9-2.2c1.4,0.4,2.7,1.1,3.7,2.2c0.9,0.9,1.6,2.1,2,3.3
	c0.3,0.9,0.5,1.9,0.5,2.9c0,0.7-0.1,1.3-0.2,2c-0.1,0.3-0.1,0.6-0.2,0.9c0,0.1-0.1,0.2-0.2,0.4c-2.1,0.4-4.1,0.9-6.1,1.4
	c-1.4,0.3-2.8,0.6-4.1,0.9c-4,1-8,2.2-11.9,3.5c-3.7,1.2-7.3,2.6-10.8,4.1c-1.1,0.5-2.3,1-3.4,1.5c-2.4,1.1-4.7,2.1-7.1,3.3
	c-1.3,0.7-2.6,1.4-3.9,2.1c-2.1,1.1-4.2,2.2-6.2,3.4c-1.3,0.8-2.6,1.6-4,2.4c-1.9,1.2-3.8,2.5-5.7,3.8c-1.3,0.9-2.6,1.8-3.9,2.8
	c-1.8,1.3-3.6,2.7-5.4,4.1c-1.2,1-2.5,2-3.7,3c-1.7,1.5-3.4,3-5.1,4.5c-1.2,1.1-2.3,2.1-3.5,3.2c-1.7,1.6-3.3,3.3-4.9,5
	c-1.1,1.1-2.2,2.2-3.2,3.4c-0.3,0.3-0.5,0.5-0.8,0.8c-0.8-0.3-1.7-0.4-2.6-0.4L27.701,199.937z M343.701,399.938h-280
	c-26.5,0-48-21.5-48-48v-40c0.1-65.1,41.6-122.9,103.2-143.8c15.8-5.2,32.2-8,48.8-8.2h32c16.2,0,32.3,2.6,47.7,7.8
	c2.3,0.8,4.5,1.6,6.8,2.5c27.2,10.5,50.8,28.6,68,52.1v0.1c2.7,3.6,5.2,7.5,7.7,11.5c9.9,16.4,16.5,34.5,19.6,53.4
	c1.4,8.2,2.1,16.4,2.2,24.7v40c0,3.2,0.3,6.3,0.8,9.4c0.1,0.7,0.2,1.5,0.4,2.2c0.5,3,1.3,6,2.3,8.9c0.1,0.2,0.2,0.4,0.2,0.6
	c1,2.7,2.1,5.3,3.4,7.9c0.3,0.6,0.6,1.3,1,1.9c1.4,2.6,3.1,5.2,4.9,7.6c0.2,0.3,0.5,0.6,0.7,0.8c1.7,2.1,3.5,4.2,5.4,6.1
	c0.5,0.5,1,1,1.5,1.5c0.4,0.4,0.8,0.8,1.2,1.1L343.701,399.938z M408.501,372.337l-11.7,23.6c-0.2-0.1-0.5-0.2-0.7-0.3
	c-0.9-0.4-1.7-0.9-2.5-1.3c-1.4-0.7-2.7-1.4-4-2.3c-0.8-0.6-1.6-1.2-2.5-1.8c-1.2-0.9-2.3-1.8-3.4-2.7c-0.8-0.7-1.5-1.4-2.2-2.2
	c-1-1-1.9-2.1-2.8-3.2c-0.6-0.8-1.3-1.6-1.9-2.4c-0.8-1.2-1.6-2.4-2.3-3.6c-0.5-0.9-1-1.7-1.5-2.6c-0.7-1.3-1.2-2.7-1.8-4.1
	c-0.4-0.9-0.7-1.8-1-2.7c-0.5-1.6-0.9-3.2-1.2-4.8c-0.2-0.8-0.4-1.6-0.5-2.4c-0.4-2.5-0.6-5-0.6-7.6v-40c0-3.9-0.2-8-0.5-12.1
	c-0.1-1.4-0.3-2.8-0.5-4.3c-0.2-2-0.4-4-0.7-6.1l0.4-0.2c0.6-0.3,1.1-0.5,1.7-0.7c0.3-0.1,0.5-0.2,0.8-0.2
	c6.4-1.6,12.8,2.3,14.4,8.7c0.2,1,0.3,2,0.3,2.9c-0.1,6.5,4.8,12.1,11.3,12.8c0.3,0,0.5,0.1,0.8,0.1s0.6,0.1,0.8,0.1
	c2,0,3.9-0.5,5.7-1.4c0.2-0.1,0.5-0.2,0.7-0.4c1-0.6,2-1.2,2.8-2.1l3.5-3.5c0.5-0.5,1.1-0.9,1.7-1.3l0,0c0.3-0.1,0.5-0.2,0.8-0.3
	h7.3c1,0.4,2,0.9,2.8,1.7c3.5,3.5,3.5,9.2,0,12.7l-3.5,3.5c-5.1,5.1-5,13.3,0,18.4c2.4,2.4,5.7,3.8,9.1,3.8c6.6,0,12,5.4,12,12
	s-5.4,12-12,12h-12C412.701,367.938,409.901,369.638,408.501,372.337L408.501,372.337z M463.701,351.938c0,26.5-21.6,48-48.1,47.9
	c-0.3,0-0.7,0-1,0c-0.6,0-1.3-0.1-1.9-0.1l7.9-15.8h7.1c15.5-0.1,27.9-12.7,27.9-28.1c-0.1-12.9-8.9-24-21.4-27.1
	c1-1.1,1.9-2.4,2.7-3.7c0.3-0.4,0.5-0.9,0.7-1.3c0.5-0.9,0.9-1.8,1.3-2.7c0.2-0.5,0.4-1.1,0.5-1.6c0.3-0.9,0.5-1.7,0.7-2.6
	c0.1-0.6,0.2-1.2,0.3-1.8c0.1-0.9,0.2-1.8,0.2-2.6c0-0.6,0-1.2,0-1.7c-0.1-0.9-0.2-1.8-0.3-2.8c-0.1-0.5-0.1-1.1-0.3-1.6
	c-0.3-1.1-0.6-2.1-1-3.1c-0.1-0.4-0.2-0.7-0.4-1.1c-0.6-1.4-1.3-2.7-2.1-3.9c0.3-0.2,0.5-0.5,0.8-0.8c1.2-0.9,2.2-2,3.2-3.1
	c0.4-0.5,0.8-1.1,1.3-1.6c0.8-1,1.5-2.1,2.1-3.2c0.4-0.6,0.7-1.2,1-1.9c0.6-1.2,1-2.5,1.4-3.8c0.2-0.6,0.4-1.2,0.6-1.8
	c0.5-2,0.7-4,0.7-6.1c0-12.9-8.9-24.2-21.5-27.2c8.9-9.9,8.5-25-0.8-34.4c-9.5-9.1-24.4-9.5-34.4-0.8c-0.3-1.4-0.8-2.8-1.4-4.2
	c-0.2-0.4-0.4-0.8-0.6-1.2c-0.4-0.9-0.9-1.8-1.4-2.6c-0.3-0.5-0.6-0.9-0.9-1.3c-0.5-0.8-1.1-1.5-1.7-2.2c-0.4-0.4-0.7-0.8-1.1-1.2
	c-0.2-0.2-0.4-0.5-0.7-0.8l0.1-0.1c0.3-0.3,0.5-0.6,0.8-0.9c0.9-0.9,1.7-1.9,2.5-3c0.4-0.5,0.6-1.1,1-1.6c0.6-0.9,1.1-1.9,1.6-2.8
	c0.3-0.6,0.5-1.3,0.7-1.9c0.4-1,0.7-2,0.9-3c0.2-0.7,0.3-1.4,0.4-2.1c0.1-0.5,0.3-1,0.3-1.6c44.7,27.7,71.9,76.5,72.1,129.1
	L463.701,351.938z"/>
<g>
</g>
<g>
</g>
<g>
</g>
<g>
</g>
<g>
</g>
<g>
</g>
<g>
</g>
<g>
</g>
<g>
</g>
<g>
</g>
<g>
</g>
<g>
</g>
<g>
</g>
<g>
</g>
<g>
</g>
</svg>
