<?xml version="1.0" encoding="iso-8859-1"?>
<!-- Generator: Adobe Illustrator 19.0.0, SVG Export Plug-In . SVG Version: 6.00 Build 0)  -->
<svg version="1.1" id="Capa_1" xmlns="http://www.w3.org/2000/svg" xmlns:xlink="http://www.w3.org/1999/xlink" x="0px" y="0px"
	 viewBox="0 0 512.101 512.101" style="enable-background:new 0 0 512.101 512.101;" xml:space="preserve">
<path style="fill:#F7CE00;" d="M50.701,274.5c4.2-26.2,43-41.4,52.9-63.6c6.1-13.8,4.5-33.4,6-50.6c-62.1,32.3-101,96.5-101,166.4
	v42.7c0,23.3,13.6,44.4,34.7,54.2c4.3-23.4,33.7-46.6,34.6-70C78.801,327.6,46.801,298.8,50.701,274.5z"/>
<path style="fill:#8EC949;" d="M488.501,181.7c-7.7-20.8-31.3-11.7-46.6-25.3c-14.2-12.6-15.7-51.3-38.2-58.3
	c-17.5-5.5-44.5,24-67.9,21.7c-18.7-1.9-37.7-36.8-60.6-36.8c-28.8,0-49.4,36.7-71,42.4c-27.5,7.3-65.1-10.5-82.8,4.5
	c-7.8,8.1-12.1,19.1-11.9,30.4l0,0c-1.5,17.2,0.1,36.8-6,50.6c-9.8,22.2-48.6,37.3-52.9,63.6c-3.9,24.3,28.1,53.1,27.1,79.1
	c-0.9,23.4-30.3,46.5-34.6,70c8.7,4.1,17.9,5.8,26.9,5.5h215.7l200-187.7C492.401,222.2,493.301,201.5,488.501,181.7z
	 M127.901,372.5c0.1-1,0.1-2.1,0.1-3.1C128.001,370.5,128.001,371.5,127.901,372.5z M125.301,387.3c0-0.1,0-0.2,0.1-0.2
	C125.301,387.1,125.301,387.2,125.301,387.3z M126.101,384.5c0-0.2,0.1-0.3,0.1-0.5C126.201,384.2,126.101,384.4,126.101,384.5z
	 M126.801,381.6c0-0.2,0.1-0.4,0.1-0.6C126.801,381.2,126.801,381.4,126.801,381.6z M127.301,378.6c0-0.2,0.1-0.4,0.1-0.6
	C127.301,378.2,127.301,378.4,127.301,378.6z M127.701,375.6c0-0.2,0-0.4,0-0.6C127.701,375.2,127.701,375.4,127.701,375.6z"/>
<path style="fill:#F7CE00;" d="M68.301,429.2h375.5c33,0,59.7-26.7,59.7-59.7v-42.7c0-103.7-84.1-187.7-187.7-187.7l0,0
	c-103.7-0.1-187.8,84-187.8,187.7v42.7C128.001,402.4,101.301,429.2,68.301,429.2z"/>
<g>
	<rect x="170.701" y="386.5" style="fill:#F09221;" width="281.6" height="17.1"/>
	<rect x="204.801" y="215.8" style="fill:#F09221;" width="17.1" height="17.1"/>
	<rect x="273.101" y="258.5" style="fill:#F09221;" width="17.1" height="17.1"/>
	<rect x="460.801" y="343.8" style="fill:#F09221;" width="17.1" height="17.1"/>
	<rect x="324.301" y="173.2" style="fill:#F09221;" width="17.1" height="17.1"/>
	<rect x="366.901" y="292.6" style="fill:#F09221;" width="17.1" height="17.1"/>
	<rect x="435.201" y="301.2" style="fill:#F09221;" width="17.1" height="17.1"/>
	<rect x="324.301" y="352.4" style="fill:#F09221;" width="17.1" height="17.1"/>
	<rect x="426.701" y="224.4" style="fill:#F09221;" width="17.1" height="17.1"/>
	<rect x="204.801" y="335.3" style="fill:#F09221;" width="17.1" height="17.1"/>
</g>
<path d="M34.201,428.5c0,0.2-0.1,0.4-0.1,0.7h1.2c10.1,5.6,21.4,8.5,33,8.5h375.5c37.7,0,68.2-30.6,68.3-68.3v-42.7
	c0-28.6-6.2-56.8-18.3-82.7l0.3,0.1c7.1-21.1,8-43.8,2.6-65.4c-6.1-16.4-19.8-19.3-30.8-21.6c-6.6-0.7-12.8-3.2-18.2-7.1
	c-5-6.3-8.8-13.5-11-21.2c-6.1-15.7-13-33.5-30.2-38.9c-12.2-3.8-24.9,3-38.3,10.3c-10.9,5.9-22.2,11.9-31.3,11.1
	c-8.3-3.1-15.7-8.2-21.5-14.8c-11.4-10.4-24.3-22.1-39.9-22.1c-20,0-35.5,13.8-49.3,26c-6.8,7.1-14.9,12.8-23.9,16.8
	c-12.1,2.1-24.4,2-36.4-0.2c-18.2-2.1-36.9-4.3-49.7,6.5c-8.7,8.3-13.8,19.5-14.4,31.5c-63,34.3-102,100.2-101.8,171.8v42.7
	C0.001,393.8,13.101,416.3,34.201,428.5z M494.901,326.8v42.7c0,28.3-22.9,51.2-51.2,51.2h-330.4c14.8-12.9,23.3-31.6,23.3-51.2
	v-42.7c0-99,80.2-179.2,179.2-179.2S494.901,227.8,494.901,326.8z M111.401,214.4c4.3-12.4,6.3-25.5,5.9-38.6
	c0.5-16.5,1-32.1,9.6-39.3c7.1-6,21.5-4.3,36.7-2.6c14.2,2.6,28.7,2.5,42.8-0.2c11.7-4.4,22.2-11.4,30.8-20.5
	c12-10.7,24.5-21.7,38-21.7c9.1,0,19,9,28.5,17.6c10.2,9.3,19.9,18,31.3,19.1c14.2,1.4,28.5-6.2,41.1-13c9.3-5,19.8-10.7,25.2-9
	c9.4,2.9,14.5,16,19.4,28.7c3,10.3,8.4,19.8,15.6,27.8c7.5,6,16.5,9.8,26,11c10.5,2.2,15.6,3.6,18.3,10.8c3.1,12.3,3.5,25,1.1,37.4
	c-57.8-91.7-178.9-119.2-270.6-61.4c-57,35.9-91.6,98.6-91.6,166.1v42.7c0,28.2-22.8,51.2-51.1,51.2c-5,0-10-0.7-14.7-2.2
	c3.8-8.1,8.3-15.7,13.7-22.8c9.1-13.2,18.5-26.8,19-41.7s-7.4-29.4-15-43.4c-7.1-12.9-13.7-25.1-12.2-34.7
	c1.8-11.6,13.9-21.8,25.6-31.7C95.701,236.3,104.801,226.1,111.401,214.4z M17.101,343.8v-17.1c-0.2-61.3,31.2-118.5,83.1-151.2
	c0.4,10.8-1.1,21.6-4.4,31.9c-5.7,9.3-13.2,17.3-22,23.6c-13.4,11.3-28.6,24.2-31.4,42.1c-2.4,15.4,6,30.7,14.1,45.6
	c6.6,11.9,13.3,24.3,12.9,34.6c-0.4,9.9-8.3,21.5-16,32.6c-5.8,7.8-10.8,16.2-14.9,24.9c-13.3-9.6-21.2-25-21.3-41.5v-25.5H17.101z"
	/>
<rect x="170.701" y="386.5" width="281.6" height="17.1"/>
<rect x="204.801" y="215.8" width="17.1" height="17.1"/>
<rect x="273.101" y="258.5" width="17.1" height="17.1"/>
<rect x="460.801" y="343.8" width="17.1" height="17.1"/>
<rect x="324.301" y="173.2" width="17.1" height="17.1"/>
<rect x="366.901" y="292.6" width="17.1" height="17.1"/>
<rect x="435.201" y="301.2" width="17.1" height="17.1"/>
<rect x="324.301" y="352.4" width="17.1" height="17.1"/>
<rect x="426.701" y="224.4" width="17.1" height="17.1"/>
<rect x="204.801" y="335.3" width="17.1" height="17.1"/>
<g>
</g>
<g>
</g>
<g>
</g>
<g>
</g>
<g>
</g>
<g>
</g>
<g>
</g>
<g>
</g>
<g>
</g>
<g>
</g>
<g>
</g>
<g>
</g>
<g>
</g>
<g>
</g>
<g>
</g>
</svg>
